<?xml version="1.0" encoding="utf-8"?>
<!-- Svg Vector Icons : http://www.onlinewebfonts.com/icon -->
<!DOCTYPE svg PUBLIC "-//W3C//DTD SVG 1.1//EN" "http://www.w3.org/Graphics/SVG/1.1/DTD/svg11.dtd">
<svg version="1.1" xmlns="http://www.w3.org/2000/svg" xmlns:xlink="http://www.w3.org/1999/xlink" x="0px" y="0px" viewBox="0 0 1000 1000" enable-background="new 0 0 1000 1000" xml:space="preserve">
<metadata> Svg Vector Icons : http://www.onlinewebfonts.com/icon </metadata>
<g><g transform="matrix(1 0 0 -1 0 1920)"><path d="M137.8,930c-35.2,0-65.3,12.5-90.3,37.5c-25,25-37.5,55.1-37.5,90.3v724.3c0,35.2,12.5,65.3,37.5,90.3c25,25,55.1,37.5,90.3,37.5h724.3c35.2,0,65.3-12.5,90.3-37.5c25-25,37.5-55.1,37.5-90.3v-724.3c0-35.2-12.5-65.3-37.5-90.3c-25-25-55.1-37.5-90.3-37.5H137.8z M244.3,1594.7c22.4,0,41.5,7.9,57.3,23.6c15.8,15.8,23.6,34.9,23.6,57.3c0,22.4-7.9,41.5-23.6,57.3c-15.8,15.8-34.9,23.6-57.3,23.6c-22.4,0-41.5-7.9-57.3-23.6c-15.8-15.8-23.6-34.9-23.6-57.3c0-22.4,7.9-41.5,23.6-57.3C202.8,1602.6,221.9,1594.7,244.3,1594.7z M500,1594.7c22.4,0,41.5,7.9,57.3,23.6c15.8,15.8,23.6,34.9,23.6,57.3c0,22.4-7.9,41.5-23.6,57.3c-15.8,15.8-34.9,23.6-57.3,23.6c-22.4,0-41.5-7.9-57.3-23.6c-15.8-15.8-23.6-34.9-23.6-57.3c0-22.4,7.9-41.5,23.6-57.3C458.5,1602.6,477.6,1594.7,500,1594.7z M755.7,1594.7c22.4,0,41.5,7.9,57.3,23.6c15.8,15.8,23.6,34.9,23.6,57.3c0,22.4-7.9,41.5-23.6,57.3c-15.8,15.8-34.9,23.6-57.3,23.6c-22.4,0-41.5-7.9-57.3-23.6c-15.8-15.8-23.6-34.9-23.6-57.3c0-22.4,7.9-41.5,23.6-57.3C714.1,1602.6,733.2,1594.7,755.7,1594.7z M244.3,1083.4c22.4,0,41.5,7.9,57.3,23.6c15.8,15.8,23.6,34.9,23.6,57.3s-7.9,41.5-23.6,57.3c-15.8,15.8-34.9,23.6-57.3,23.6c-22.4,0-41.5-7.9-57.3-23.6c-15.8-15.8-23.6-34.9-23.6-57.3s7.9-41.5,23.6-57.3S221.9,1083.4,244.3,1083.4z M500,1083.4c22.4,0,41.5,7.9,57.3,23.6c15.8,15.8,23.6,34.9,23.6,57.3c0,14.8-3.6,28.3-10.9,40.7c-7.2,12.4-17,22.2-29.4,29.4c-12.4,7.2-25.9,10.9-40.7,10.9c-22.4,0-41.5-7.9-57.3-23.6c-15.8-15.8-23.6-34.9-23.6-57.3s7.9-41.5,23.6-57.3S477.6,1083.4,500,1083.4z M755.7,1083.4c22.4,0,41.5,7.9,57.3,23.6c15.8,15.8,23.6,34.9,23.6,57.3c0,11.1-2.1,21.6-6.4,31.5c-4.3,9.9-10,18.5-17.3,25.8c-7.2,7.2-15.8,13-25.8,17.3c-9.9,4.3-20.5,6.4-31.5,6.4c-22.4,0-41.5-7.9-57.3-23.6c-15.8-15.8-23.6-34.9-23.6-57.3s7.9-41.5,23.6-57.3S733.2,1083.4,755.7,1083.4z"/></g></g>
</svg>