<?xml version="1.0" encoding="utf-8"?>
<!-- Svg Vector Icons : http://www.onlinewebfonts.com/icon -->
<!DOCTYPE svg PUBLIC "-//W3C//DTD SVG 1.1//EN" "http://www.w3.org/Graphics/SVG/1.1/DTD/svg11.dtd">
<svg version="1.1" xmlns="http://www.w3.org/2000/svg" xmlns:xlink="http://www.w3.org/1999/xlink" x="0px" y="0px" viewBox="0 0 1000 1000" enable-background="new 0 0 1000 1000" xml:space="preserve">
<metadata> Svg Vector Icons : http://www.onlinewebfonts.com/icon </metadata>
<g><g transform="matrix(1 0 0 -1 0 1920)"><path d="M137.8,930c-35.2,0-65.3,12.5-90.3,37.5c-25,25-37.5,55.1-37.5,90.3v724.3c0,35.2,12.5,65.3,37.5,90.3c25,25,55.1,37.5,90.3,37.5h724.3c35.2,0,65.3-12.5,90.3-37.5c25-25,37.5-55.1,37.5-90.3v-724.3c0-35.2-12.5-65.3-37.5-90.3c-25-25-55.1-37.5-90.3-37.5H137.8z M500,1339c22.4,0,41.5,7.9,57.3,23.6c15.8,15.8,23.6,34.9,23.6,57.3c0,22.4-7.9,41.5-23.6,57.3c-15.8,15.8-34.9,23.6-57.3,23.6c-22.4,0-41.5-7.9-57.3-23.6c-15.8-15.8-23.6-34.9-23.6-57.3c0-14.8,3.6-28.3,10.9-40.7s17-22.2,29.4-29.4C471.7,1342.7,485.2,1339,500,1339z"/></g></g>
</svg>